HIERARCHY
ROOT Hips
{
  OFFSET 196.326 95.9168 97.7182
  CHANNELS 6 Xposition Yposition Zposition Zrotation Xrotation Yrotation
  JOINT LeftUpLeg
  {
    OFFSET 8.64259 1.95398 -2.38835
    CHANNELS 3 Zrotation Xrotation Yrotation
    JOINT LeftLeg
    {
      OFFSET 43.7702 0 0
      CHANNELS 3 Zrotation Xrotation Yrotation
      JOINT LeftFoot
      {
        OFFSET 40.6238 0 0
        CHANNELS 3 Zrotation Xrotation Yrotation
        JOINT LeftToeBase
        {
          OFFSET 12.7242 0 0
          CHANNELS 3 Zrotation Xrotation Yrotation
          End Site
          {
            OFFSET 0 0 0
          }
        }
      }
    }
  }
  JOINT RightUpLeg
  {
    OFFSET -8.2249 1.95398 -2.59336
    CHANNELS 3 Zrotation Xrotation Yrotation
    JOINT RightLeg
    {
      OFFSET 43.5653 0 0
      CHANNELS 3 Zrotation Xrotation Yrotation
      JOINT RightFoot
      {
        OFFSET 40.6238 0 0
        CHANNELS 3 Zrotation Xrotation Yrotation
        JOINT RightToeBase
        {
          OFFSET 12.7242 0 0
          CHANNELS 3 Zrotation Xrotation Yrotation
          End Site
          {
            OFFSET 0 0 0
          }
        }
      }
    }
  }
  JOINT Spine
  {
    OFFSET 0.165834 0.87714 6.61349
    CHANNELS 3 Zrotation Xrotation Yrotation
    JOINT Spine1
    {
      OFFSET 7.38963 1.71661e-005 0
      CHANNELS 3 Zrotation Xrotation Yrotation
      JOINT Spine2
      {
        OFFSET 11.9445 1.14441e-005 0
        CHANNELS 3 Zrotation Xrotation Yrotation
        JOINT Spine3
        {
          OFFSET 14.7254 4.19617e-005 0
          CHANNELS 3 Zrotation Xrotation Yrotation
          JOINT Spine4
          {
            OFFSET 10.9679 0 0
            CHANNELS 3 Zrotation Xrotation Yrotation
            JOINT RightShoulder
            {
              OFFSET 2.46616 -1.6653 3.69651
              CHANNELS 3 Zrotation Xrotation Yrotation
              JOINT RightArm
              {
                OFFSET 13.0012 0 0
                CHANNELS 3 Zrotation Xrotation Yrotation
                JOINT RightForeArm
                {
                  OFFSET 28.7848 1.52588e-005 0
                  CHANNELS 3 Zrotation Xrotation Yrotation
                  JOINT RightHand
                  {
                    OFFSET 26.5688 1.52588e-005 0
                    CHANNELS 3 Zrotation Xrotation Yrotation
                    End Site
                    {
                      OFFSET 0 0 0
                    }
                  }
                }
              }
            }
            JOINT LeftShoulder
            {
              OFFSET 2.38034 -1.29275 -3.75231
              CHANNELS 3 Zrotation Xrotation Yrotation
              JOINT LeftArm
              {
                OFFSET 16.3182 6.10351e-005 0
                CHANNELS 3 Zrotation Xrotation Yrotation
                JOINT LeftForeArm
                {
                  OFFSET 27.0901 0 0
                  CHANNELS 3 Zrotation Xrotation Yrotation
                  JOINT LeftHand
                  {
                    OFFSET 24.5451 1.52588e-005 0
                    CHANNELS 3 Zrotation Xrotation Yrotation
                    End Site
                    {
                      OFFSET 0 0 0
                    }
                  }
                }
              }
            }
            JOINT Neck
            {
              OFFSET 5.0226 -0.0266342 0
              CHANNELS 3 Zrotation Xrotation Yrotation
              JOINT Head
              {
                OFFSET 6.69363 2.86102e-005 0
                CHANNELS 3 Zrotation Xrotation Yrotation
                End Site
                {
                  OFFSET 0 0 0
                }
              }
            }
          }
        }
      }
    }
  }
}
MOTION
Frames:	15
Frame Time:	0.0416667
-17.8755 96.8113 -135.234 -50.5406 -81.1046 -50.7504 -172.949 8.73222 89.1615 -11.3134 8.89418 -0.701509 63.6202 10.0289 15.793 38.8262 9.43223 -25.9564 179.583 11.219 91.8916 -17.5461 6.1099 -0.994208 69.6136 -3.01253 -1.56727 30.3674 -0.932298 20.681 -0.298754 6.69874 -90.2055 13.4755 -0.692153 -0.322773 1.80472 -0.705689 -0.292009 -20.7312 -0.563152 -0.51588 -0.718538 -0.56315 -0.515881 79.4726 -52.6709 -115.611 25.1708 -11.7513 7.78651 -6.62828 -14.1317 -38.5699 -6.19132 -0.460318 1.50344 -101.171 -43.0045 59.44 -29.2746 10.5566 0.0162247 3.05031 9.00619 -30.7401 11.1575 1.27498 7.10341 14.9202 4.45236 1.75579 -0.420552 4.00548 2.64399 
-17.8388 96.9648 -135.216 -53.1957 -80.9113 -53.0985 -172.037 7.96159 89.8912 -10.3404 9.09319 -1.36156 64.0099 9.00019 13.9148 37.4212 8.56358 -22.9698 179.774 10.3607 92.2139 -16.1481 6.16933 -1.0323 69.1713 -3.21329 -1.68845 29.9898 -1.06307 21.3695 -0.193578 6.6546 -90.1856 13.564 -0.473971 -0.310383 1.89314 -0.487165 -0.289229 -20.6422 -0.358781 -0.43848 -0.62952 -0.358777 -0.438479 79.4382 -53.7334 -115.252 24.2886 -11.4871 7.25816 -4.5403 -14.9232 -36.1992 -7.36335 -0.578238 2.84436 -101.502 -42.6401 58.768 -29.0269 11.0341 -0.339578 2.33425 10.0749 -28.097 11.7837 1.26506 6.51295 14.6381 3.89746 1.24649 -1.2802 3.59191 2.76592 
-17.7832 97.0413 -135.276 -52.2108 -81.3569 -52.3258 -172.152 7.45731 89.7086 -9.44858 9.51327 -1.39141 63.3266 8.08212 13.9028 37.467 8.56642 -23.8009 179.608 10.1701 91.9871 -15.961 6.77685 -0.968822 68.888 -3.15392 -1.6612 30.2068 -1.04517 22.0502 -0.235218 6.62979 -90.0987 13.6141 -0.514393 -0.130899 1.94322 -0.519645 -0.108131 -20.5925 -0.451271 -0.279442 -0.579899 -0.451266 -0.279436 79.3691 -53.7285 -115.352 25.3715 -10.0486 8.076 -5.27464 -14.1036 -37.1258 -6.90316 -0.761959 7.22989 -100.757 -42.0414 59.6554 -29.3145 10.9681 -0.753995 2.2287 11.1021 -26.3996 11.1432 1.13119 5.90794 14.4887 3.74256 0.372213 -1.37346 3.68533 3.04931 
-17.7231 97.0353 -135.624 -51.1235 -81.7623 -51.2928 -172.44 7.7885 89.5015 -9.80038 9.73728 -1.20154 63.0093 8.11788 14.3251 38.0251 8.91356 -25.0615 179.622 10.3243 91.9549 -16.0753 7.36276 -0.997685 68.8743 -3.19493 -1.68286 30.3594 -1.026 22.4563 -0.234274 6.63217 -90.0517 13.6095 -0.48969 -0.0398451 1.93867 -0.490965 -0.0182519 -20.5971 -0.455075 -0.185177 -0.584498 -0.455074 -0.185175 79.6521 -52.9438 -115.249 26.7899 -9.12126 7.90657 -4.25813 -13.3967 -34.9315 -7.94546 -0.860137 7.29619 -100.824 -41.6914 59.3949 -29.3398 10.3587 -0.589876 2.52382 11.5487 -25.8279 10.2829 1.02938 5.70499 14.8743 3.49893 0.161168 -1.59218 3.49464 3.01759 
-17.7358 97.0257 -136.162 -55.9854 -82.2602 -56.5362 -172.322 7.23871 89.3026 -9.78029 9.78934 -1.41315 62.8483 7.97654 14.0805 37.6066 8.60036 -25.4566 179.447 10.3335 91.6171 -17.1265 7.16249 -1.10512 69.2981 -3.19532 -1.67244 29.474 -1.26778 22.5904 -0.19527 6.72553 -89.9777 13.423 -0.376555 0.0926429 1.75212 -0.372115 0.109121 -20.7835 -0.387003 -0.0248139 -0.77082 -0.386995 -0.0248194 79.867 -52.0822 -115.27 28.3759 -7.84154 8.62678 -4.88727 -12.4264 -35.479 -8.04714 -0.867907 7.24804 -101.165 -41.9155 58.9639 -28.8683 10.2846 -0.186883 2.26372 10.5748 -25.9305 10.5296 1.02337 5.45767 15.5056 3.22334 0.357474 -1.93824 3.14783 2.71759 
-17.6739 97.0849 -136.542 -59.9847 -82.3125 -60.5874 -172.284 6.86887 89.2623 -9.63657 9.60081 -1.40267 62.5831 7.69028 13.946 37.6038 8.54706 -26.738 179.465 10.0226 91.5597 -16.9227 6.909 -1.20461 68.8253 -3.08458 -1.62017 30.0241 -1.11135 22.3982 -0.127119 6.77366 -89.9224 13.3267 -0.214705 0.182394 1.65575 -0.20647 0.191662 -20.8795 -0.259595 0.109437 -0.866863 -0.259603 0.109425 79.683 -51.9626 -115.583 28.826 -7.97361 8.99156 -4.4724 -11.7769 -35.8228 -7.85136 -0.794285 6.34784 -101.389 -42.2515 58.7683 -27.8891 10.1591 0.391992 2.4772 10.6818 -26.444 9.57294 0.912557 5.19705 15.8078 2.91719 0.646883 -1.89177 2.74444 2.12907 
-17.6493 97.0829 -136.81 -61.4119 -81.9943 -61.8988 -172.223 7.12947 89.3558 -9.8909 9.49026 -1.43693 62.5981 7.83437 14.0458 37.7235 8.63733 -26.5414 179.487 10.1582 91.6419 -16.7979 6.85404 -1.13404 68.7171 -3.04784 -1.60423 29.9729 -1.15181 22.8881 -0.0401907 6.79235 -89.8968 13.2892 -0.0298642 0.210379 1.6182 -0.0205765 0.211482 -20.9169 -0.0917177 0.191676 -0.904204 -0.0917167 0.19167 79.7312 -52.0515 -115.478 28.7525 -8.22645 8.98049 -3.63534 -10.8882 -36.0492 -6.80879 -0.650992 5.36031 -101.525 -42.6948 58.7574 -26.8653 10.2805 0.591245 2.3672 10.2755 -26.9013 9.59921 0.902109 5.07702 16.1303 2.75743 0.753831 -1.77425 2.54541 1.80763 
-17.5414 97.043 -136.948 -60.9345 -81.8394 -61.3155 -172.317 7.64877 89.3406 -10.5128 9.11635 -1.33296 62.7097 7.8022 14.0189 38.3197 9.00829 -27.4103 179.509 10.6658 91.6685 -17.2927 6.85476 -1.09028 68.4806 -2.85995 -1.50655 30.1736 -1.0871 22.6746 -0.00734678 6.77589 -89.8843 13.322 0.0413404 0.226431 1.65101 0.0512713 0.224382 -20.884 -0.0286225 0.228387 -0.871332 -0.0286167 0.22839 79.442 -52.2736 -115.81 28.2699 -9.18066 9.01809 -3.65618 -11.48 -36.3671 -6.14036 -0.552608 4.32563 -101.542 -43.0747 58.9008 -26.542 10.1291 1.12719 2.50113 9.85385 -27.6212 10.5766 1.01822 5.37274 16.0569 2.63879 0.956309 -1.57647 2.36707 1.57608 
-17.4876 97.0588 -137.089 -63.9724 -81.9977 -64.4118 -172.2 7.28543 89.3515 -10.5208 9.12264 -1.42475 62.5583 7.39354 13.6875 38.9068 9.39867 -27.5573 179.529 10.246 91.6112 -17.2133 6.53431 -1.22615 68.4556 -2.85887 -1.50333 30.0213 -1.09699 22.1237 0.010849 6.8058 -89.8649 13.2621 0.0868158 0.259525 1.59112 0.098151 0.255446 -20.9438 0.00479687 0.273616 -0.931182 0.0047997 0.273619 79.6448 -52.1133 -115.579 28.2083 -10.7651 9.05154 -4.70683 -13.0951 -37.6223 -5.49661 -0.558805 5.42468 -101.357 -42.9153 59.1137 -27.277 9.81726 1.58238 1.88001 8.2044 -27.2936 13.0064 1.18869 5.08338 15.6599 2.68229 1.04979 -1.70723 2.38459 1.53495 
-17.4656 97.0928 -137.238 -65.1472 -82.0025 -65.6476 -172.246 7.10696 89.2646 -10.3274 8.92887 -1.3902 62.645 7.57171 13.7362 37.8045 8.63061 -28.0589 179.423 10.1359 91.5011 -17.0739 6.4829 -1.16374 68.3453 -2.84397 -1.49731 29.9717 -1.11444 22.2069 0.018395 6.80951 -89.8528 13.2547 0.107579 0.281156 1.58368 0.119849 0.276136 -20.9512 0.0180995 0.300492 -0.938581 0.01811 0.300483 80.1773 -51.5201 -115.036 28.7038 -11.4032 8.86037 -5.6212 -14.0836 -37.2915 -5.52219 -0.51739 4.03978 -101.307 -42.9044 59.1863 -27.9798 9.12995 2.27379 1.91125 7.14403 -27.6578 13.8814 1.25578 5.03717 15.5332 2.70529 1.12419 -1.8649 2.38306 1.46899 
-17.4822 97.0904 -137.399 -67.0361 -82.0126 -67.5574 -172.292 6.96849 89.2368 -10.3413 9.01076 -1.35033 62.3996 7.55653 14.0026 38.3166 8.97928 -27.9691 179.515 9.91821 91.5469 -16.9288 6.54691 -1.2739 68.4845 -2.92195 -1.53854 29.5736 -1.21648 22.1688 0.00897308 6.8195 -89.8383 13.2347 0.0958767 0.311637 1.56369 0.109495 0.307112 -20.9712 -0.00222115 0.326046 -0.958524 -0.00221931 0.326045 80.0547 -51.4281 -115.25 28.7233 -11.8575 8.9469 -6.18181 -14.6777 -37.9827 -6.26306 -0.601579 4.71282 -100.949 -42.8143 59.6987 -28.6759 9.04093 2.67802 1.88297 6.84823 -27.7354 13.8976 1.27877 5.18953 15.2369 2.75905 0.864102 -1.92104 2.51642 1.64002 
-17.4817 97.0972 -137.494 -67.5605 -82.1525 -68.0957 -172.277 6.8215 89.2429 -10.1145 9.37318 -1.40259 62.0479 7.43025 14.4426 39.0175 9.45241 -27.9348 179.563 9.85877 91.5628 -16.9256 6.72737 -1.33221 68.3636 -2.89144 -1.52411 29.8304 -1.16455 22.4406 -0.00106632 6.82167 -89.8474 13.2303 0.0715275 0.296362 1.55937 0.0844989 0.292915 -20.9755 -0.0208524 0.30416 -0.962866 -0.0208519 0.304151 80.0665 -51.2873 -115.288 28.7101 -11.8183 9.03595 -6.47938 -14.2638 -38.3848 -7.01209 -0.695481 5.61384 -101.148 -42.8469 59.4059 -29.2786 8.77928 2.99086 1.9903 6.82981 -27.567 13.7253 1.25338 5.1125 14.9328 2.72874 1.22186 -1.85753 2.38129 1.31692 
-17.4524 97.1117 -137.604 -68.7791 -82.0596 -69.3274 -172.244 6.70746 89.2313 -10.0137 9.20333 -1.41646 62.2424 7.56546 14.4343 37.9623 8.75263 -27.6867 179.555 9.91982 91.5273 -17.1269 6.2946 -1.36261 68.0823 -2.82291 -1.48987 30.1914 -1.03819 21.8524 0.00732654 6.83579 -89.8307 13.202 0.0962271 0.326894 1.53107 0.110525 0.322343 -21.0038 -0.00647659 0.340698 -0.99112 -0.00646712 0.340707 80.1077 -51.2921 -115.226 28.6515 -11.3651 8.81684 -6.83245 -14.2584 -38.828 -6.76137 -0.647863 4.997 -100.903 -42.6767 59.7087 -29.6808 9.32803 2.90395 1.55056 6.69674 -27.0317 13.3811 1.19172 4.87849 14.9274 2.68774 0.891816 -1.84524 2.43359 1.39591 
-17.4238 97.1002 -137.707 -69.7471 -82.3067 -70.3488 -172.241 6.61636 89.2066 -10.103 9.3202 -1.44207 62.7314 7.77169 13.8465 36.5731 7.84269 -26.5045 179.447 9.84248 91.4306 -17.2917 6.59822 -1.31222 68.3616 -2.91833 -1.53928 29.7893 -1.1525 22.0387 -0.00263436 6.86165 -89.8371 13.1504 0.0732931 0.316928 1.47938 0.0871658 0.313394 -21.0555 -0.0253549 0.324297 -1.04282 -0.0253467 0.324302 80.6513 -51.3715 -114.402 28.5078 -10.858 8.32562 -5.68523 -12.976 -38.3049 -7.02418 -0.586639 3.51572 -101.303 -42.7449 59.121 -29.8516 10.0427 2.83037 1.10925 6.75948 -26.6001 12.9734 1.13549 4.71503 14.9416 2.74784 0.921029 -1.99162 2.47884 1.31465 
-17.3978 97.1019 -137.809 -69.7325 -82.618 -70.181 -172.205 6.84736 89.3366 -10.5966 9.52531 -1.41238 62.6366 7.55566 13.8289 37.3017 8.33754 -26.7789 179.544 9.74702 91.6044 -17.2011 6.9189 -1.33951 68.1751 -2.92151 -1.54376 30.1016 -1.07704 22.1346 -0.0247095 6.86181 -89.8637 13.1501 0.0166392 0.270583 1.47916 0.0285313 0.269585 -21.0558 -0.0654596 0.263073 -1.04313 -0.0654494 0.263079 80.4574 -51.5015 -114.636 28.3013 -10.3437 8.40992 -5.15894 -11.7467 -38.4343 -6.60986 -0.542149 3.28838 -101.657 -42.7932 58.5979 -30.2105 10.2025 2.85096 1.3318 7.75631 -26.3235 12.3568 1.12634 5.02255 14.5361 2.82865 0.909417 -1.78434 2.56594 1.27813 
